<svg width="18" height="18" viewBox="0 0 18 18" fill="none" xmlns="http://www.w3.org/2000/svg">
<path fill-rule="evenodd" clip-rule="evenodd" d="M3.5956 5.29144C3.5956 4.35469 4.35535 3.59494 5.29135 3.59494H6.0631C6.5101 3.59494 6.93985 3.41794 7.25785 3.10219L7.7971 2.56219C8.45785 1.89844 9.53185 1.89544 10.1956 2.55619L10.2024 2.56219L10.7424 3.10219C11.0596 3.41794 11.4894 3.59494 11.9371 3.59494H12.7081C13.6449 3.59494 14.4046 4.35469 14.4046 5.29144V6.06169C14.4046 6.51019 14.5816 6.93919 14.8974 7.25719L15.4374 7.79719C16.1011 8.45794 16.1049 9.53119 15.4441 10.1957L15.4374 10.2024L14.8974 10.7424C14.5816 11.0589 14.4046 11.4894 14.4046 11.9364V12.7082C14.4046 13.6449 13.6449 14.4039 12.7081 14.4039H11.9371C11.4894 14.4039 11.0596 14.5817 10.7424 14.8974L10.2024 15.4367C9.54235 16.1012 8.46835 16.1042 7.80385 15.4434C7.8016 15.4412 7.79935 15.4389 7.7971 15.4367L7.25785 14.8974C6.93985 14.5817 6.5101 14.4039 6.0631 14.4039H5.29135C4.35535 14.4039 3.5956 13.6449 3.5956 12.7082V11.9364C3.5956 11.4894 3.41785 11.0589 3.1021 10.7424L2.56285 10.2024C1.89835 9.54169 1.89535 8.46769 2.5561 7.80394L2.56285 7.79719L3.1021 7.25719C3.41785 6.93919 3.5956 6.51019 3.5956 6.06169V5.29144Z" stroke="#161616" stroke-linecap="round" stroke-linejoin="round"/>
<path d="M7.07227 10.9273L10.9273 7.07227" stroke="#161616" stroke-linecap="round" stroke-linejoin="round"/>
<path d="M10.9258 11.4905C10.7758 11.4905 10.6333 11.4305 10.5283 11.3255C10.4758 11.273 10.4383 11.2055 10.4083 11.138C10.3783 11.0705 10.3633 11.0038 10.3633 10.928C10.3633 10.853 10.3783 10.778 10.4083 10.7105C10.4383 10.643 10.4758 10.583 10.5283 10.5305C10.7383 10.3205 11.1133 10.3205 11.3233 10.5305C11.3758 10.583 11.4208 10.643 11.4508 10.7105C11.4733 10.778 11.4883 10.853 11.4883 10.928C11.4883 11.0038 11.4733 11.0705 11.4508 11.138C11.4208 11.2055 11.3758 11.273 11.3233 11.3255C11.2183 11.4305 11.0758 11.4905 10.9258 11.4905Z" fill="#161616"/>
<path d="M7.07031 7.63759C6.99531 7.63759 6.92781 7.62184 6.86031 7.59184C6.79281 7.56184 6.72531 7.52509 6.67281 7.47259C6.62031 7.41259 6.58281 7.35259 6.55281 7.28509C6.52281 7.21684 6.50781 7.15009 6.50781 7.07509C6.50781 6.99934 6.52281 6.92509 6.55281 6.85759C6.58281 6.79009 6.62031 6.72259 6.67281 6.67759C6.89031 6.46684 7.25781 6.46684 7.46781 6.67759C7.57281 6.78184 7.63281 6.92509 7.63281 7.07509C7.63281 7.15009 7.62531 7.21684 7.59531 7.28509C7.56531 7.35259 7.52031 7.41259 7.46781 7.47259C7.41531 7.52509 7.35531 7.56184 7.28781 7.59184C7.22031 7.62184 7.14531 7.63759 7.07031 7.63759Z" fill="#161616"/>
</svg>
